<svg width="155" height="156" viewBox="0 0 155 156" fill="none" xmlns="http://www.w3.org/2000/svg">
<path d="M110.338 19.8325L119.865 28.2439L134.034 29.1824C134.675 29.2302 135.45 29.6649 135.571 30.4514L154.787 145.944L102.849 155.927L110.338 19.8325ZM97.9922 156L0 139.687L13.3713 48.0398C14.0175 43.9175 14.1731 43.7793 19.0968 42.4073L34.9852 38.0288C38.386 25.2147 49.2318 0 71.9331 0C74.8984 0 78.3317 1.4147 81.1032 4.67129C91.4921 4.24125 97.2107 12.0225 100.35 20.0471L105.551 18.6206L97.9922 156ZM78.0545 11.0827C72.5185 13.1935 66.1864 18.7882 62.8082 30.3722L80.3524 25.5452C80.4163 18.7379 79.4502 14.1911 78.0545 11.0827ZM41.9862 36.1014L55.8538 32.2857C59.1472 16.9866 66.9457 9.32501 74.221 6.28326C73.2764 5.70531 72.2894 5.41006 71.3095 5.41006C55.004 5.41006 45.8437 24.432 41.9862 36.1014ZM81.9262 55.8872C81.9262 55.8872 77.3928 53.5516 68.2155 53.5516C44.3985 53.5516 32.5997 67.6861 32.5997 82.2918C32.5997 99.6452 52.0868 100.116 52.0868 110.678C52.0868 113.231 50.0548 116.725 45.0603 116.725C37.4159 116.725 28.3575 109.815 28.3575 109.815L23.7434 123.36C23.7434 123.36 32.5558 132.89 49.7889 132.89C64.1501 132.89 74.8008 123.282 74.8008 108.362C74.8008 89.398 51.0474 86.2959 51.0474 78.1997C51.0474 76.7159 51.5791 70.8271 62.1393 70.8271C69.3425 70.8271 75.2193 73.6138 75.2193 73.6138L81.9262 55.8872ZM86.307 23.9081L94.8012 21.5724C92.649 15.7301 89.3048 10.6543 84.2834 10.0939C85.827 14.045 86.3742 18.7455 86.307 23.9081Z" fill="white"/>
</svg>
